# xmcd
#
# Track frame offsets:
#	150
#	11935
#	25238
#	43004
#	56125
#	80188
#	98276
#	109934
#	130916
#	149492
#	162692
#	180709
#
# Disc length: 2602 seconds
#
# Revision: 1
# Processed by: cddbd v1.5.2PL0 Copyright (c) Steve Scherf et al.
# Submitted via: audiograbber 1.83.01
#
DISCID=ac0a280c
DTITLE=Bintangs - Livetime
DYEAR=1900
DGENRE=
TTITLE0=ridin' on the l and n
TTITLE1=debbie die
TTITLE2=murder
TTITLE3=night fighter
TTITLE4=hound is on the run
TTITLE5=blues on the ceiling
TTITLE6=i'm on my own again
TTITLE7=rosemary nymphet
TTITLE8=it's all in my room
TTITLE9=travelin' in the usa
TTITLE10=the price
TTITLE11=snake in the grass
EXTD=
EXTT0=
EXTT1=
EXTT2=
EXTT3=
EXTT4=
EXTT5=
EXTT6=
EXTT7=
EXTT8=
EXTT9=
EXTT10=
EXTT11=
PLAYORDER=
